HIERARCHY
ROOT Hips
{
	OFFSET 0.00000 0.00000 0.00000
	CHANNELS 6 Xposition Yposition Zposition Zrotation Yrotation Xrotation 
	JOINT LHipJoint
	{
		OFFSET 0 0 0
		CHANNELS 3 Zrotation Yrotation Xrotation
		JOINT LeftHip
		{
			OFFSET 1.38615 -1.80049 0.80104
			CHANNELS 3 Zrotation Yrotation Xrotation
			JOINT LeftKnee
			{
				OFFSET 2.50172 -6.87341 0.00000
				CHANNELS 3 Zrotation Yrotation Xrotation
				JOINT LeftAnkle
				{
					OFFSET 2.67523 -7.35014 0.00000
					CHANNELS 3 Zrotation Yrotation Xrotation
					JOINT LeftToe
					{
						OFFSET 0.17446 -0.47932 2.13155
						CHANNELS 3 Zrotation Yrotation Xrotation
						End Site
						{
							OFFSET 0.00000 -0.00000 1.10023
						}
					}
				}
			}
		}
	}
	JOINT RHipJoint
	{
		OFFSET 0 0 0
		CHANNELS 3 Zrotation Yrotation Xrotation
		JOINT RightHip
		{
			OFFSET -1.18047 -1.80049 0.80104
			CHANNELS 3 Zrotation Yrotation Xrotation
			JOINT RightKnee
			{
				OFFSET -2.59789 -7.13765 0.00000
				CHANNELS 3 Zrotation Yrotation Xrotation
				JOINT RightAnkle
				{
					OFFSET -2.62125 -7.20183 0.00000
					CHANNELS 3 Zrotation Yrotation Xrotation
					JOINT RightToe
					{
						OFFSET -0.31287 -0.85960 2.07814
						CHANNELS 3 Zrotation Yrotation Xrotation
						End Site
						{
							OFFSET -0.00000 -0.00000 1.11766
						}
					}
				}
			}
		}
	}
	JOINT lowerback
	{
		OFFSET 0 0 0
		CHANNELS 3 Zrotation Yrotation Xrotation
		JOINT Chest
		{
			OFFSET -0.01587 2.16157 -0.12309
			CHANNELS 3 Zrotation Yrotation Xrotation
			JOINT Chest2
			{
				OFFSET 0.04727 2.16674 -0.03569
				CHANNELS 3 Zrotation Yrotation Xrotation
				JOINT lowerneck
				{
					OFFSET 0 0 0
					CHANNELS 3 Zrotation Yrotation Xrotation
					JOINT Neck
					{
						OFFSET -0.08586 1.60335 0.32783
						CHANNELS 3 Zrotation Yrotation Xrotation
						JOINT Head
						{
							OFFSET 0.07583 1.65857 -0.31618
							CHANNELS 3 Zrotation Yrotation Xrotation
							End Site
							{
								OFFSET 0.03386 1.69434 -0.14584
							}
						}
					}
				}
				JOINT LeftCollar
				{
					OFFSET 0 0 0
					CHANNELS 3 Zrotation Yrotation Xrotation
					JOINT LeftShoulder
					{
						OFFSET 3.17393 1.01901 -0.52897
CHANNELS 3 Zrotation Xrotation Yrotation
						JOINT LeftElbow
						{
OFFSET 0 -5.252870 -0.000000
CHANNELS 3 Zrotation Xrotation Yrotation
							JOINT LeftWrist
							{
OFFSET 0 -3.510140 0.000000
CHANNELS 3 Zrotation Xrotation Yrotation
								JOINT lhand
								{
									OFFSET 0 0 0
CHANNELS 3 Zrotation Xrotation Yrotation
									JOINT LFingers
									{
OFFSET 0 -0.706180 -0.000000
CHANNELS 3 Zrotation Xrotation Yrotation
										End Site
										{
OFFSET 0 -0.569340 -0.000000
										}
									}
								}
								JOINT LThumb
								{
OFFSET 0 0.000000 0.000000
CHANNELS 3 Zrotation Xrotation Yrotation
									End Site
									{
OFFSET 0 -0.578030 0.578030
									}
								}
							}
						}
					}
				}
				JOINT RightCollar
				{
					OFFSET 0 0 0
					CHANNELS 3 Zrotation Yrotation Xrotation
					JOINT RightShoulder
					{
						OFFSET -2.99471 1.26495 -0.61125
CHANNELS 3 Zrotation Xrotation Yrotation
						JOINT RightElbow
						{
OFFSET 0 -5.287210 -0.000000
CHANNELS 3 Zrotation Xrotation Yrotation
							JOINT RightWrist
							{
OFFSET 0 -3.505440 0.000000
CHANNELS 3 Zrotation Xrotation Yrotation
								JOINT rhand
								{
									OFFSET 0 0 0
CHANNELS 3 Zrotation Xrotation Yrotation
									JOINT RFingers
									{
OFFSET 0 -0.885000 -0.000000
CHANNELS 3 Zrotation Xrotation Yrotation
										End Site
										{
OFFSET 0 -0.713510 -0.000000
										}
									}
								}
								JOINT RThumb
								{
OFFSET 0 0.000000 0.000000
CHANNELS 3 Zrotation Xrotation Yrotation
									End Site
									{
OFFSET 0 -0.724400 0.724400
									}
								}
							}
						}
					}
				}
			}
		}
	}
}
MOTION
Frames: 4
Frame Time: 0.008333333333333333
-4.226700 18.038700 2.995600 -1.443400 13.887200 3.849400 0.000000 0.000000 0.000000 -18.245200 -6.237200 -22.200200 0.841800 5.852400 16.356900 -0.160000 -7.119200 1.747400 0.155900 -2.543800 -7.011200 0.000000 0.000000 0.000000 24.201200 -7.185800 -2.682000 -3.671300 -11.709700 34.712600 -0.712000 -3.453400 -17.560600 -2.442300 9.732200 -28.113900 1.298200 6.997800 -0.316700 2.253800 9.270700 2.438600 1.817300 4.633200 2.516300 2.160800 18.503400 -11.956900 -2.392500 26.282700 22.780100 2.071200 12.218800 9.775800 -0.000000 -0.000000 0.000000 -3.193500 -5.137200 -5.929300 9.751000 -16.349200 1.404000 -2.331600 20.908800 -37.921200 0.000000 0.000000 0.000000 -7.125000 0.000000 0.000000 -44.270300 62.263900 20.698500 -0.000000 -0.000000 0.000000 -0.267700 -15.870200 33.402200 -24.164600 -35.337800 -7.801500 -14.239700 -5.933500 -16.668700 0.000000 0.000000 0.000000 7.125000 0.000000 -0.000000 9.026000 12.969200 6.857600
-4.211254 18.039812 3.035747 -1.258412 13.920225 3.760782 0.000000 0.000000 0.000000 -18.500085 -6.177611 -21.924581 0.851536 5.885064 16.451438 -0.162224 -7.191230 1.598201 0.195266 -2.814521 -7.764946 0.000000 0.000000 0.000000 23.887357 -7.271713 -2.969339 -3.845861 -11.943790 35.545228 -0.682160 -3.342485 -17.159732 -2.441188 9.730157 -28.107349 1.152127 6.942568 -0.151064 2.161636 9.203899 2.456540 1.779527 4.598432 2.435916 2.149742 18.509019 -11.999451 -2.326630 26.284563 22.854654 2.100619 12.220363 9.798187 0.000000 0.000000 0.000000 -3.083306 -5.071300 -6.082676 9.828018 -16.469911 1.425937 -2.843623 20.529087 -38.190088 0.000000 0.000000 0.000000 -7.125000 0.000000 0.000000 -45.104160 62.321356 21.245862 0.000000 0.000000 0.000000 -0.265296 -15.837085 33.023749 -23.890874 -35.045503 -7.645089 -14.323960 -5.835537 -16.632099 0.000000 0.000000 0.000000 7.125000 0.000000 0.000000 8.969476 12.998379 6.808108
-4.195809 18.040924 3.075894 -1.073423 13.953250 3.672165 0.000000 0.000000 0.000000 -18.754970 -6.118021 -21.648961 0.861272 5.917729 16.545975 -0.164447 -7.263260 1.449003 0.234631 -3.085242 -8.518692 0.000000 0.000000 0.000000 23.573514 -7.357626 -3.256678 -4.020422 -12.177880 36.377855 -0.652321 -3.231570 -16.758864 -2.440076 9.728113 -28.100798 1.006053 6.887336 0.014572 2.069473 9.137097 2.474480 1.741754 4.563664 2.355532 2.138683 18.514639 -12.042002 -2.260760 26.286426 22.929209 2.130038 12.221925 9.820575 0.000000 0.000000 0.000000 -2.973113 -5.005400 -6.236051 9.905037 -16.590622 1.447873 -3.355647 20.149374 -38.458976 0.000000 0.000000 0.000000 -7.125000 0.000000 0.000000 -45.938020 62.378812 21.793225 0.000000 0.000000 0.000000 -0.262892 -15.803970 32.645298 -23.617148 -34.753206 -7.488679 -14.408221 -5.737573 -16.595498 0.000000 0.000000 0.000000 7.125000 0.000000 0.000000 8.912952 13.027557 6.758615
-4.180363 18.042036 3.116041 -0.888435 13.986275 3.583547 0.000000 0.000000 0.000000 -19.009854 -6.058432 -21.373342 0.871009 5.950393 16.640513 -0.166671 -7.335290 1.299804 0.273997 -3.355964 -9.272439 0.000000 0.000000 0.000000 23.259671 -7.443540 -3.544017 -4.194983 -12.411970 37.210483 -0.622481 -3.120655 -16.357996 -2.438964 9.726070 -28.094247 0.859980 6.832104 0.180208 1.977309 9.070296 2.492420 1.703981 4.528896 2.275148 2.127625 18.520258 -12.084553 -2.194891 26.288289 23.003763 2.159457 12.223488 9.842962 0.000000 0.000000 0.000000 -2.862919 -4.939501 -6.389427 9.982055 -16.711334 1.469810 -3.867670 19.769661 -38.727864 0.000000 0.000000 0.000000 -7.125000 0.000000 0.000000 -46.771879 62.436267 22.340587 0.000000 0.000000 0.000000 -0.260488 -15.770854 32.266848 -23.343421 -34.460909 -7.332268 -14.492481 -5.639610 -16.558897 0.000000 0.000000 0.000000 7.125000 0.000000 0.000000 8.856427 13.056736 6.709123
